<mxfile host="app.diagrams.net" agent="Mozilla/5.0 (Windows NT 10.0; Win64; x64) AppleWebKit/537.36 (KHTML, like Gecko) Chrome/131.0.0.0 Safari/537.36" version="26.0.6">
  <diagram name="Seite-1" id="kRstl8Lt_FCU-tyWEnZt">
    <mxGraphModel dx="1563" dy="586" grid="1" gridSize="10" guides="1" tooltips="1" connect="1" arrows="1" fold="1" page="1" pageScale="1" pageWidth="827" pageHeight="1169" math="0" shadow="0">
      <root>
        <mxCell id="0" />
        <mxCell id="1" parent="0" />
        <mxCell id="WzXt60KTRU3QuJ7-sdqa-2" value="" style="rounded=0;whiteSpace=wrap;html=1;" vertex="1" parent="1">
          <mxGeometry x="120" y="70" width="120" height="350" as="geometry" />
        </mxCell>
        <mxCell id="WzXt60KTRU3QuJ7-sdqa-1" value="Worker ID" style="rounded=0;whiteSpace=wrap;html=1;" vertex="1" parent="1">
          <mxGeometry x="120" y="70" width="120" height="30" as="geometry" />
        </mxCell>
        <mxCell id="WzXt60KTRU3QuJ7-sdqa-3" value="Worker Lock" style="rounded=0;whiteSpace=wrap;html=1;" vertex="1" parent="1">
          <mxGeometry x="120" y="100" width="120" height="30" as="geometry" />
        </mxCell>
        <mxCell id="WzXt60KTRU3QuJ7-sdqa-4" value="Worker Length" style="rounded=0;whiteSpace=wrap;html=1;" vertex="1" parent="1">
          <mxGeometry x="120" y="130" width="120" height="30" as="geometry" />
        </mxCell>
        <mxCell id="WzXt60KTRU3QuJ7-sdqa-5" value="Partition Entry" style="rounded=0;whiteSpace=wrap;html=1;" vertex="1" parent="1">
          <mxGeometry x="120" y="160" width="120" height="30" as="geometry" />
        </mxCell>
        <mxCell id="WzXt60KTRU3QuJ7-sdqa-6" value="" style="endArrow=none;dashed=1;html=1;dashPattern=1 3;strokeWidth=5;rounded=0;" edge="1" parent="1">
          <mxGeometry width="50" height="50" relative="1" as="geometry">
            <mxPoint x="180.16" y="250" as="sourcePoint" />
            <mxPoint x="179.66" y="190" as="targetPoint" />
          </mxGeometry>
        </mxCell>
        <mxCell id="WzXt60KTRU3QuJ7-sdqa-7" value="" style="endArrow=none;html=1;rounded=0;exitX=1;exitY=0;exitDx=0;exitDy=0;entryX=0;entryY=0;entryDx=0;entryDy=0;" edge="1" parent="1" source="WzXt60KTRU3QuJ7-sdqa-5" target="WzXt60KTRU3QuJ7-sdqa-8">
          <mxGeometry width="50" height="50" relative="1" as="geometry">
            <mxPoint x="380" y="320" as="sourcePoint" />
            <mxPoint x="390" y="70" as="targetPoint" />
          </mxGeometry>
        </mxCell>
        <mxCell id="WzXt60KTRU3QuJ7-sdqa-8" value="" style="rounded=0;whiteSpace=wrap;html=1;" vertex="1" parent="1">
          <mxGeometry x="310" y="70" width="120" height="350" as="geometry" />
        </mxCell>
        <mxCell id="WzXt60KTRU3QuJ7-sdqa-9" value="" style="endArrow=none;html=1;rounded=0;exitX=1;exitY=1;exitDx=0;exitDy=0;entryX=0;entryY=1;entryDx=0;entryDy=0;" edge="1" parent="1" source="WzXt60KTRU3QuJ7-sdqa-5" target="WzXt60KTRU3QuJ7-sdqa-8">
          <mxGeometry width="50" height="50" relative="1" as="geometry">
            <mxPoint x="250" y="170" as="sourcePoint" />
            <mxPoint x="440" y="90" as="targetPoint" />
          </mxGeometry>
        </mxCell>
        <mxCell id="WzXt60KTRU3QuJ7-sdqa-10" value="Partition ID" style="rounded=0;whiteSpace=wrap;html=1;" vertex="1" parent="1">
          <mxGeometry x="310" y="70" width="120" height="30" as="geometry" />
        </mxCell>
        <mxCell id="WzXt60KTRU3QuJ7-sdqa-11" value="Partition Lock" style="rounded=0;whiteSpace=wrap;html=1;" vertex="1" parent="1">
          <mxGeometry x="310" y="100" width="120" height="30" as="geometry" />
        </mxCell>
        <mxCell id="WzXt60KTRU3QuJ7-sdqa-12" value="# Files" style="rounded=0;whiteSpace=wrap;html=1;" vertex="1" parent="1">
          <mxGeometry x="310" y="130" width="120" height="30" as="geometry" />
        </mxCell>
        <mxCell id="WzXt60KTRU3QuJ7-sdqa-13" value="File Entry" style="rounded=0;whiteSpace=wrap;html=1;" vertex="1" parent="1">
          <mxGeometry x="310" y="160" width="120" height="30" as="geometry" />
        </mxCell>
        <mxCell id="WzXt60KTRU3QuJ7-sdqa-14" value="" style="endArrow=none;dashed=1;html=1;dashPattern=1 3;strokeWidth=5;rounded=0;" edge="1" parent="1">
          <mxGeometry width="50" height="50" relative="1" as="geometry">
            <mxPoint x="370.15999999999997" y="250" as="sourcePoint" />
            <mxPoint x="369.65999999999997" y="190" as="targetPoint" />
          </mxGeometry>
        </mxCell>
        <mxCell id="WzXt60KTRU3QuJ7-sdqa-15" value="" style="endArrow=none;html=1;rounded=0;exitX=1;exitY=0;exitDx=0;exitDy=0;entryX=0;entryY=0;entryDx=0;entryDy=0;" edge="1" parent="1" source="WzXt60KTRU3QuJ7-sdqa-13" target="WzXt60KTRU3QuJ7-sdqa-16">
          <mxGeometry width="50" height="50" relative="1" as="geometry">
            <mxPoint x="510" y="160" as="sourcePoint" />
            <mxPoint x="660" y="70" as="targetPoint" />
          </mxGeometry>
        </mxCell>
        <mxCell id="WzXt60KTRU3QuJ7-sdqa-16" value="" style="rounded=0;whiteSpace=wrap;html=1;" vertex="1" parent="1">
          <mxGeometry x="500" y="70" width="120" height="350" as="geometry" />
        </mxCell>
        <mxCell id="WzXt60KTRU3QuJ7-sdqa-17" value="" style="endArrow=none;html=1;rounded=0;exitX=1;exitY=1;exitDx=0;exitDy=0;entryX=0;entryY=1;entryDx=0;entryDy=0;" edge="1" parent="1" source="WzXt60KTRU3QuJ7-sdqa-13" target="WzXt60KTRU3QuJ7-sdqa-16">
          <mxGeometry width="50" height="50" relative="1" as="geometry">
            <mxPoint x="520" y="170" as="sourcePoint" />
            <mxPoint x="670" y="80" as="targetPoint" />
          </mxGeometry>
        </mxCell>
        <mxCell id="WzXt60KTRU3QuJ7-sdqa-18" value="Filename + &#39;,&#39;" style="rounded=0;whiteSpace=wrap;html=1;" vertex="1" parent="1">
          <mxGeometry x="500" y="70" width="120" height="30" as="geometry" />
        </mxCell>
        <mxCell id="WzXt60KTRU3QuJ7-sdqa-19" value="File size" style="rounded=0;whiteSpace=wrap;html=1;" vertex="1" parent="1">
          <mxGeometry x="500" y="100" width="120" height="30" as="geometry" />
        </mxCell>
        <mxCell id="WzXt60KTRU3QuJ7-sdqa-20" value="File status" style="rounded=0;whiteSpace=wrap;html=1;" vertex="1" parent="1">
          <mxGeometry x="500" y="130" width="120" height="30" as="geometry" />
        </mxCell>
        <mxCell id="WzXt60KTRU3QuJ7-sdqa-21" value="# Subfiles" style="rounded=0;whiteSpace=wrap;html=1;" vertex="1" parent="1">
          <mxGeometry x="500" y="160" width="120" height="30" as="geometry" />
        </mxCell>
        <mxCell id="WzXt60KTRU3QuJ7-sdqa-22" value="1. Subfile size" style="rounded=0;whiteSpace=wrap;html=1;" vertex="1" parent="1">
          <mxGeometry x="500" y="190" width="120" height="30" as="geometry" />
        </mxCell>
        <mxCell id="WzXt60KTRU3QuJ7-sdqa-23" value="1. Subfile # Tubles" style="rounded=0;whiteSpace=wrap;html=1;" vertex="1" parent="1">
          <mxGeometry x="500" y="220" width="120" height="30" as="geometry" />
        </mxCell>
        <mxCell id="WzXt60KTRU3QuJ7-sdqa-24" value="2. Subfile size" style="rounded=0;whiteSpace=wrap;html=1;" vertex="1" parent="1">
          <mxGeometry x="500" y="250" width="120" height="30" as="geometry" />
        </mxCell>
        <mxCell id="WzXt60KTRU3QuJ7-sdqa-25" value="2. Subfile # Tubles" style="rounded=0;whiteSpace=wrap;html=1;" vertex="1" parent="1">
          <mxGeometry x="500" y="280" width="120" height="30" as="geometry" />
        </mxCell>
        <mxCell id="WzXt60KTRU3QuJ7-sdqa-26" value="" style="endArrow=none;dashed=1;html=1;dashPattern=1 3;strokeWidth=5;rounded=0;" edge="1" parent="1">
          <mxGeometry width="50" height="50" relative="1" as="geometry">
            <mxPoint x="560.16" y="370" as="sourcePoint" />
            <mxPoint x="559.66" y="310" as="targetPoint" />
          </mxGeometry>
        </mxCell>
        <mxCell id="WzXt60KTRU3QuJ7-sdqa-27" value="&lt;b&gt;&lt;font style=&quot;font-size: 14px;&quot;&gt;Worker&lt;/font&gt;&lt;/b&gt;" style="text;html=1;align=center;verticalAlign=middle;whiteSpace=wrap;rounded=0;" vertex="1" parent="1">
          <mxGeometry x="130" y="30" width="100" height="30" as="geometry" />
        </mxCell>
        <mxCell id="WzXt60KTRU3QuJ7-sdqa-28" value="&lt;span style=&quot;font-size: 14px;&quot;&gt;&lt;b&gt;Partition&lt;/b&gt;&lt;/span&gt;" style="text;html=1;align=center;verticalAlign=middle;whiteSpace=wrap;rounded=0;" vertex="1" parent="1">
          <mxGeometry x="320" y="30" width="100" height="30" as="geometry" />
        </mxCell>
        <mxCell id="WzXt60KTRU3QuJ7-sdqa-29" value="&lt;span style=&quot;font-size: 14px;&quot;&gt;&lt;b&gt;File&lt;/b&gt;&lt;/span&gt;" style="text;html=1;align=center;verticalAlign=middle;whiteSpace=wrap;rounded=0;" vertex="1" parent="1">
          <mxGeometry x="510" y="30" width="100" height="30" as="geometry" />
        </mxCell>
      </root>
    </mxGraphModel>
  </diagram>
</mxfile>
